<svg width="182" height="66" viewBox="0 0 182 66" fill="none" xmlns="http://www.w3.org/2000/svg">
<g filter="url(#filter0_d)">
<path d="M6.83438 58C6.30104 58 5.82104 57.8133 5.39438 57.44C5.02104 57.0133 4.83438 56.5333 4.83438 56V4C4.83438 3.41333 5.02104 2.93333 5.39438 2.56C5.82104 2.18666 6.30104 2 6.83438 2H15.4744C16.7544 2 17.6877 2.58666 18.2744 3.76L32.3544 28.96L46.4344 3.76C47.021 2.58666 47.9544 2 49.2344 2H57.7944C58.381 2 58.861 2.18666 59.2344 2.56C59.661 2.93333 59.8744 3.41333 59.8744 4V56C59.8744 56.5867 59.661 57.0667 59.2344 57.44C58.861 57.8133 58.381 58 57.7944 58H48.2744C47.6877 58 47.181 57.8133 46.7544 57.44C46.381 57.0667 46.1944 56.5867 46.1944 56V26L37.2344 42.72C36.541 43.9467 35.6077 44.56 34.4344 44.56H30.2744C29.581 44.56 29.021 44.4 28.5944 44.08C28.1677 43.76 27.7944 43.3067 27.4744 42.72L18.4344 26V56C18.4344 56.5333 18.2477 57.0133 17.8744 57.44C17.501 57.8133 17.021 58 16.4344 58H6.83438ZM70.3444 58C69.7577 58 69.251 57.8133 68.8244 57.44C68.451 57.0667 68.2644 56.5867 68.2644 56V50.32C68.2644 48.72 68.931 47.4133 70.2644 46.4L78.5844 38.24C83.4377 34.5067 87.1177 31.6 89.6244 29.52C92.131 27.44 94.0244 25.5467 95.3044 23.84C96.5844 22.1333 97.2244 20.5067 97.2244 18.96C97.2244 14.7467 95.1444 12.64 90.9844 12.64C88.7977 12.64 87.1177 13.3067 85.9444 14.64C84.771 15.92 83.9977 17.5467 83.6244 19.52C83.3044 20.7467 82.3977 21.36 80.9044 21.36H70.9044C70.4244 21.36 70.0244 21.2 69.7044 20.88C69.3844 20.56 69.2244 20.16 69.2244 19.68C69.331 16.2667 70.2644 13.1467 72.0244 10.32C73.8377 7.44 76.371 5.17333 79.6244 3.52C82.931 1.81333 86.7177 0.959995 90.9844 0.959995C95.4644 0.959995 99.3044 1.68 102.504 3.12C105.704 4.56 108.131 6.58666 109.784 9.2C111.438 11.8133 112.264 14.8533 112.264 18.32C112.264 22.0533 111.091 25.4667 108.744 28.56C106.451 31.6 102.931 34.9067 98.1844 38.48L90.8244 45.92H111.384C111.971 45.92 112.451 46.1067 112.824 46.48C113.251 46.8533 113.464 47.3333 113.464 47.92V56C113.464 56.5867 113.251 57.0667 112.824 57.44C112.451 57.8133 111.971 58 111.384 58H70.3444ZM124.116 58C123.582 58 123.102 57.8133 122.676 57.44C122.302 57.0133 122.116 56.5333 122.116 56V4C122.116 3.41333 122.302 2.93333 122.676 2.56C123.102 2.18666 123.582 2 124.116 2H132.756C134.036 2 134.969 2.58666 135.556 3.76L149.636 28.96L163.716 3.76C164.302 2.58666 165.236 2 166.516 2H175.076C175.662 2 176.142 2.18666 176.516 2.56C176.942 2.93333 177.156 3.41333 177.156 4V56C177.156 56.5867 176.942 57.0667 176.516 57.44C176.142 57.8133 175.662 58 175.076 58H165.556C164.969 58 164.462 57.8133 164.036 57.44C163.662 57.0667 163.476 56.5867 163.476 56V26L154.516 42.72C153.822 43.9467 152.889 44.56 151.716 44.56H147.556C146.862 44.56 146.302 44.4 145.876 44.08C145.449 43.76 145.076 43.3067 144.756 42.72L135.716 26V56C135.716 56.5333 135.529 57.0133 135.156 57.44C134.782 57.8133 134.302 58 133.716 58H124.116Z" fill="#4E6AF0"/>
</g>
<defs>
<filter id="filter0_d" x="0.834381" y="0.959991" width="180.321" height="65.04" filterUnits="userSpaceOnUse" color-interpolation-filters="sRGB">
<feFlood flood-opacity="0" result="BackgroundImageFix"/>
<feColorMatrix in="SourceAlpha" type="matrix" values="0 0 0 0 0 0 0 0 0 0 0 0 0 0 0 0 0 0 127 0"/>
<feOffset dy="4"/>
<feGaussianBlur stdDeviation="2"/>
<feColorMatrix type="matrix" values="0 0 0 0 0 0 0 0 0 0 0 0 0 0 0 0 0 0 0.25 0"/>
<feBlend mode="normal" in2="BackgroundImageFix" result="effect1_dropShadow"/>
<feBlend mode="normal" in="SourceGraphic" in2="effect1_dropShadow" result="shape"/>
</filter>
</defs>
</svg>
